PathFileType	4	(X/Y/Z)	T00_Trial_0-100.trc
DataRate	CameraRate	NumFrames	NumMarkers	Units	OrigDataRate	OrigDataStartFrame	OrigNumFrames
60	60	5	22	m	60	12	100
Frame#	Time	Hip			RHip			RKnee			RAnkle			RBigToe			RSmallToe			RHeel			LHip			LKnee			LAnkle			LBigToe			LSmallToe			LHeel			Neck			Head			Nose			RShoulder			RElbow			RWrist			LShoulder			LElbow			LWrist		
		X1	Y1	Z1	X2	Y2	Z2	X3	Y3	Z3	X4	Y4	Z4	X5	Y5	Z5	X6	Y6	Z6	X7	Y7	Z7	X8	Y8	Z8	X9	Y9	Z9	X10	Y10	Z10	X11	Y11	Z11	X12	Y12	Z12	X13	Y13	Z13	X14	Y14	Z14	X15	Y15	Z15	X16	Y16	Z16	X17	Y17	Z17	X18	Y18	Z18	X19	Y19	Z19	X20	Y20	Z20	X21	Y21	Z21	X22	Y22	Z22
12	0.2	-0.02476533420425024	0.9173608151396159	-1.2751877162281073	-0.11643603356350464	0.9160455961690366	-1.2972571582897228	-0.09013599893203367	0.5019364983029001	-1.3437156524723781	0.008466627626814636	0.18568715339719938	-1.5866074855855856	-0.013003359154113209	0.06817795594500423	-1.4631096397454675	-0.04825799601755085	0.07784847959272743	-1.5180761679058836	0.039034143683249006	0.15172832682974294	-1.6330025981945404	0.047200390446856824	0.8978158617027361	-1.3005017412202378	-0.0035099633908571466	0.5160889886492864	-1.14100149576998	-0.008528955272648587	0.15081121000452757	-1.150570181392926	-0.046827320090406355	0.09232310806603025	-0.9848279704230053	0.0036222629686990604	0.08969048366151874	-1.005368720719342	-0.005997654556904597	0.09632158753513535	-1.1829171434501446	0.06295361114784556	1.469212826179862	-1.2729336573952843	0.0994984813482362	1.7019500746603424	-1.1135765013611565	0.07198155925272146	1.5456298619412534	-1.1021392920557003	-0.11184364469670588	1.4272878998851692	-1.3068169682520097	-0.3024404950739025	1.249400029912947	-1.3839034113170017	-0.45173843670603897	1.1416513394516454	-1.2743464570493899	0.20145258055382378	1.369148800891836	-1.377898826168765	0.3062884100787424	1.1026667302073334	-1.3562184792243925	0.3534944936918329	0.8543007352719906	-1.2996285521018072
13	0.2166666666666666	-0.02986254058232717	0.9194783958433885	-1.2620001811824841	-0.12046302716019858	0.9196319812306298	-1.2868183087752145	-0.10266411469914238	0.507180670744216	-1.313967870601311	0.0018104312787022763	0.19247971820432533	-1.5782499497832256	-0.022076745624027748	0.07150349586596928	-1.4572000431080054	-0.052938299148478904	0.08146332840856045	-1.5167511055641048	0.03295372039326459	0.1616626184625697	-1.6279551784259498	0.045062544221244984	0.899472280178142	-1.2711475442546087	-0.00762198753303068	0.5171330354731664	-1.1278407439433462	-0.009375905650387173	0.15272622089036902	-1.147349100287411	-0.04735934357168699	0.09091416883027824	-0.9849494332942288	0.0016892676981738464	0.0889907925868824	-1.0036298605026042	-0.0042609281715391386	0.09695633664891208	-1.1824545091902883	0.0719837042051396	1.4674384665973244	-1.2657564100167502	0.11600890999108003	1.6993558002464066	-1.1021453817976135	0.08415973415956968	1.5425158971353452	-1.0903031326090036	-0.10204378092096905	1.4311868659012048	-1.298579562275219	-0.30321326885028416	1.2633187167979774	-1.3726387690529391	-0.4547643209814917	1.1700439210941167	-1.2492155836741727	0.21041216984133496	1.3622194874606581	-1.3610082470840603	0.31033308604567206	1.093968516998346	-1.3425554667110335	0.3535549154458971	0.8423534927899704	-1.2818897641151281
14	0.2333333333333333	-0.03513505432941105	0.9209392981626585	-1.2515138111547508	-0.12459645446044575	0.9228833309682873	-1.2785868294242562	-0.11763711335840348	0.511635277788729	-1.2865382496946343	-0.00619078323041156	0.20086751662080737	-1.5660430453721932	-0.0308338094749236	0.07601414824297306	-1.44957684988352	-0.05842025110135429	0.0859505935441994	-1.5136075616594569	0.022937532219773266	0.17524583349547734	-1.616654899046374	0.04279684693664508	0.9000208996954316	-1.246244889611246	-0.013015156103759267	0.5198263643773773	-1.1097823211231455	-0.010535982654087325	0.15633286409745498	-1.1427266717590228	-0.04782916903461574	0.09034381695023895	-0.9846007162025598	0.0003208533824378573	0.08854065097798067	-1.002949088592146	-0.0025328570801271713	0.09784145536520734	-1.1834605675637286	0.08189023369679325	1.465032090990518	-1.2569345161096934	0.13222247957280137	1.6962704627947243	-1.0909869857822752	0.09586206458330038	1.5382439004058852	-1.0824699015939316	-0.09195272945913197	1.4348302674852524	-1.290246635866151	-0.3029580649187228	1.2766637219328252	-1.361909380833026	-0.45313841114105063	1.1972438754502037	-1.2152369444385407	0.2210038791475267	1.3546068407284404	-1.3399674478973382	0.3144428690373644	1.084463515478479	-1.3278913800482453	0.3533375669557302	0.829972125357357	-1.2642363935239944
15	0.25	-0.040305341605762025	0.9217001036922244	-1.242821894275431	-0.12872824519556228	0.9255221465796764	-1.2721779682907597	-0.13473419296579298	0.5151060715347447	-1.2640788638156772	-0.015671722868079316	0.2104083346776383	-1.5494079305434227	-0.03979683474739945	0.08139046527737874	-1.4406056957704645	-0.06472882623599562	0.09100054908926651	-1.5076589749179705	0.0076592566303195645	0.19253647505514765	-1.5951754613107947	0.03892704444965032	0.89929901562943	-1.2293262681734816	-0.02111446915251915	0.5243965191366763	-1.0882761816333384	-0.011914783089818182	0.16174566337100657	-1.136497347675597	-0.04831868081595399	0.09085381890843826	-0.9830724215161136	-2.7440496325141076e-05	0.08818009898438707	-1.0037011658165373	-0.0011630764592298229	0.09900589948011555	-1.185802841203014	0.09265766262411337	1.4616379736131264	-1.246599716201165	0.14768160525155666	1.6924763518194486	-1.080305876357142	0.10704435193931298	1.5324273183680366	-1.0800365862945482	-0.08158027245581306	1.4380960215468837	-1.2820309081898627	-0.3011567795921164	1.2894963510880797	-1.3518147658463695	-0.44647485919959656	1.223547852732362	-1.1768325466018161	0.2333008303192967	1.346139450491233	-1.314533806436541	0.31856293168978994	1.074180187041291	-1.31230834162033	0.35284777425055786	0.8176009932059073	-1.247148291499118
16	0.2666666666666666	-0.04524428697179754	0.9218288341873773	-1.2351604299938193	-0.13273590012153544	0.927541188569513	-1.2670990430362192	-0.15474979680542553	0.5186438534032626	-1.24563266131248	-0.027309579526961735	0.2202765037032284	-1.5275312923397755	-0.05072180700162166	0.08696976616801066	-1.4295122235689035	-0.07279023621622757	0.09598883442302797	-1.4978466525874672	-0.013802991859223972	0.2126024520272854	-1.5608588664771892	0.033148816663877194	0.8973779425810261	-1.2208608987381542	-0.031079460501941505	0.5294272289257071	-1.0667302538457863	-0.013245202673702243	0.1682535180458181	-1.1294736036200268	-0.04883779089234849	0.09226138696159397	-0.9801622044137506	0.001024962885815701	0.08761580130987894	-1.00613398952674	-0.00021624731602520105	0.10056387624612195	-1.1886592685806496	0.10339779379154475	1.457323341047702	-1.236602623931827	0.16205036447748922	1.6878002618010874	-1.070034054030795	0.1171400988815895	1.5257739675869206	-1.0806102269998805	-0.07121022538031906	1.4407792527306187	-1.274488472367058	-0.2976626773567254	1.3017963874478922	-1.3423924327839978	-0.43632888881424203	1.250372490660993	-1.1407913402922802	0.24661375348512493	1.3369826295876113	-1.2863504612143362	0.32256086796526834	1.063201200922554	-1.2960041096749886	0.35209867759975055	0.8055911720329036	-1.230935742417718
